<svg xmlns="http://www.w3.org/2000/svg" viewBox="0 0 400 240" width="400" height="240">
  <defs>
    <linearGradient id="uol-sky" x1="0%" y1="100%" x2="0%" y2="0%">
      <stop offset="0%" style="stop-color:#0a1628"/>
      <stop offset="55%" style="stop-color:#1a3a5c"/>
      <stop offset="100%" style="stop-color:#4a8fd4"/>
    </linearGradient>
    <filter id="uol-glow">
      <feGaussianBlur stdDeviation="1" result="b"/>
      <feMerge><feMergeNode in="b"/><feMergeNode in="SourceGraphic"/></feMerge>
    </filter>
  </defs>
  <rect width="400" height="240" fill="url(#uol-sky)"/>
  <g opacity="0.2" stroke="#7ec8ff" stroke-width="0.6" fill="none">
    <path d="M0 200h400M0 160h400M0 120h400M0 80h400"/>
  </g>
  <rect x="60" y="188" width="72" height="10" rx="3" fill="#5a7ab0" opacity="0.95"/>
  <rect x="180" y="158" width="64" height="10" rx="3" fill="#66ffaa" opacity="0.9"/>
  <rect x="290" y="128" width="56" height="10" rx="3" fill="#cc88ff" opacity="0.85"/>
  <rect x="120" y="98" width="68" height="10" rx="3" fill="#a8b8d8"/>
  <rect x="240" y="68" width="60" height="10" rx="3" fill="#ffaa66"/>
  <circle cx="200" cy="118" r="14" fill="#dff0ff" filter="url(#uol-glow)"/>
  <path d="M200 104v10M194 112h12" stroke="#1a2538" stroke-width="2" stroke-linecap="round"/>
  <text x="200" y="42" text-anchor="middle" fill="#dff0ff" font-family="system-ui,Segoe UI,sans-serif" font-size="26" font-weight="800" letter-spacing="2" filter="url(#uol-glow)">UP OR</text>
  <text x="200" y="72" text-anchor="middle" fill="#ff8866" font-family="system-ui,Segoe UI,sans-serif" font-size="22" font-weight="800" letter-spacing="10">LOSE</text>
  <text x="200" y="228" text-anchor="middle" fill="#88c8ff" font-family="Consolas,monospace" font-size="8" opacity="0.75">CLIMB - DO NOT FALL</text>
</svg>
